PathFileType	4	(X/Y/Z)	/Users/niels/Desktop/University/Third Semester/Perception and Action/Exam/Gymnastics Motion Tracking/Code for Gym Tracking/Analyzed Data/Webcam_Backflip/id6_3_baseline_Sports2D/id6_3_baseline_Sports2D_px_person00.trc
DataRate	CameraRate	NumFrames	NumMarkers	Units	OrigDataRate	OrigDataStartFrame	OrigNumFrames
29.8125	29.8125	12	22	m	29.8125	140	160
Frame#	Time	Hip			RHip			RKnee			RAnkle			RBigToe			RSmallToe			RHeel			LHip			LKnee			LAnkle			LBigToe			LSmallToe			LHeel			Neck			Head			Nose			RShoulder			RElbow			RWrist			LShoulder			LElbow			LWrist		
		X1	Y1	Z1	X2	Y2	Z2	X3	Y3	Z3	X4	Y4	Z4	X5	Y5	Z5	X6	Y6	Z6	X7	Y7	Z7	X8	Y8	Z8	X9	Y9	Z9	X10	Y10	Z10	X11	Y11	Z11	X12	Y12	Z12	X13	Y13	Z13	X14	Y14	Z14	X15	Y15	Z15	X16	Y16	Z16	X17	Y17	Z17	X18	Y18	Z18	X19	Y19	Z19	X20	Y20	Z20	X21	Y21	Z21	X22	Y22	Z22
140	4.696016771488469	0.9529273487983422	-0.6356396229713852	0.0	0.9503415282482002	-0.6360580453601954	0.0	0.9861442691947757	-0.7276422724034952	0.0	0.9543477742327515	-0.820793197520199	0.0	0.9833678786487604	-0.8392423982411071	0.0	0.9739512977577355	-0.8391841471639373	0.0	0.944436167876506	-0.8313569444772829	0.0	0.9540797321399584	-0.6350198842330783	0.0	0.9871425688469639	-0.7254723877129118	0.0	0.9570429621614964	-0.8148463070534854	0.0	0.9919325588808948	-0.83167419494325	0.0	0.9849051321252891	-0.828060744785251	0.0	0.944538941075295	-0.8243258648044806	0.0	0.9546572481473103	-0.5001349562915722	0.0	0.969851217590851	-0.43389788660112694	0.0	0.9844719988996427	-0.4677806798711798	0.0	0.9458804329180127	-0.5216698542535941	0.0	0.9392364890474374	-0.5890894715731203	0.0	0.951875973542871	-0.6508750569631087	0.0	0.9504703028453598	-0.5182844223281309	0.0	0.9468273509442847	-0.5821867449306702	0.0	0.9629559626192133	-0.638171888596847	0.0
141	4.729559748427672	0.9553098570230595	-0.6204080243654526	0.0	0.9525876945272242	-0.620460475167379	0.0	0.9874525024877935	-0.7123639499459862	0.0	0.9547288231951763	-0.8049727350895707	0.0	0.9852116682980308	-0.8244236364002309	0.0	0.9754375692212693	-0.8247827243936728	0.0	0.944078535452823	-0.8169028048477407	0.0	0.9556437058594554	-0.6190602813616587	0.0	0.9881144001023231	-0.7101637435984022	0.0	0.9581918462566421	-0.7982519440624313	0.0	0.9941438855186048	-0.8171214079870667	0.0	0.9870334879719457	-0.8136577363533681	0.0	0.9453475958589567	-0.8093193063467619	0.0	0.9579670691032166	-0.48556130395593844	0.0	0.9756098760305066	-0.41900150368639316	0.0	0.988351237777782	-0.4531399870120973	0.0	0.9501877167565969	-0.5065214508525715	0.0	0.942212043199659	-0.5734152161213321	0.0	0.9550537180050925	-0.63425064163768	0.0	0.9525683392551143	-0.5031404297713442	0.0	0.9488472681747316	-0.5655831766477041	0.0	0.9653463021693376	-0.6200939657689138	0.0
142	4.763102725366876	0.9574681892525665	-0.6010850531715756	0.0	0.9551209523764953	-0.6009457464170151	0.0	0.9887217761499784	-0.6935318760788507	0.0	0.9556492550090102	-0.7862709395563712	0.0	0.9873500568805836	-0.807445146294404	0.0	0.9770346090855015	-0.8081845354517854	0.0	0.9443807834949832	-0.7998016822226056	0.0	0.9567777017968737	-0.5992936348904635	0.0	0.9886736160146863	-0.6915532647884666	0.0	0.9596992982149868	-0.7790671895520491	0.0	0.9961669989886518	-0.80065928274949	0.0	0.9892468151768312	-0.7971570427571669	0.0	0.946513620785833	-0.7918914577988704	0.0	0.9606666290629184	-0.4667751722777167	0.0	0.9809423407662835	-0.39995852023116585	0.0	0.991475984990112	-0.4344435027730143	0.0	0.9538235835158975	-0.4871398573872783	0.0	0.94445602378315	-0.5536411232212981	0.0	0.958613948203007	-0.6131272920220112	0.0	0.9538366000071575	-0.48373636556224137	0.0	0.9501136973978099	-0.5448852145807384	0.0	0.9674967727982264	-0.598204417768871	0.0
143	4.796645702306079	0.9595761761750768	-0.5798172840948413	0.0	0.9581142319581144	-0.5798205130923356	0.0	0.9897907600774721	-0.6734928511805793	0.0	0.9571137483573617	-0.7670573078442704	0.0	0.9895704996434741	-0.790709007523042	0.0	0.9786339553405868	-0.7916752913205424	0.0	0.9455190535274934	-0.7820765099213111	0.0	0.9578141250674892	-0.5780241705273802	0.0	0.9887948874965666	-0.6719081331774832	0.0	0.9614439566544245	-0.7597397053510749	0.0	0.9977642399853133	-0.784416911751947	0.0	0.9912954173178454	-0.7806630581840484	0.0	0.9479870877790998	-0.7741578868622135	0.0	0.9629944775103191	-0.44614579932801574	0.0	0.9857245137405636	-0.37923374445013325	0.0	0.9939621441103278	-0.4140198630207583	0.0	0.9568274289062495	-0.46588304662609775	0.0	0.9463449414322034	-0.5320810282383515	0.0	0.9628444887982822	-0.5900268627967468	0.0	0.9548329625303337	-0.462550748023109	0.0	0.9512573593945631	-0.5226690138075836	0.0	0.9699586511480845	-0.5751694379570178	0.0
144	4.830188679245282	0.9616617246066849	-0.5586224783532762	0.0	0.9614322183743107	-0.5591258079868959	0.0	0.9903869378954793	-0.6542277617362624	0.0	0.9591441407137093	-0.7490675039562648	0.0	0.9918582450830274	-0.7757436866175184	0.0	0.9803878945452122	-0.7767675695988587	0.0	0.9475954338212953	-0.765214677585205	0.0	0.9589015307319653	-0.5571974454536813	0.0	0.9884381784794399	-0.6529763971413771	0.0	0.9633566945514108	-0.7419500436479909	0.0	0.999020607322394	-0.7697546772251059	0.0	0.9931494125556697	-0.7655982112199212	0.0	0.9497482497276158	-0.7576655937277177	0.0	0.9651859495146152	-0.42579071247472733	0.0	0.9900008494016806	-0.35898058045439624	0.0	0.9960728856240368	-0.3939337265825082	0.0	0.9593000157877675	-0.44482085731227206	0.0	0.9482495026819625	-0.5108226211225924	0.0	0.9680159213629304	-0.5671798663047782	0.0	0.9559739274833106	-0.44168555749488714	0.0	0.9527001387098153	-0.5010820734492362	0.0	0.9729807560657875	-0.5531625802161534	0.0
145	4.863731656184486	0.9636630481618543	-0.5391970789474189	0.0	0.9647878997282066	-0.5404186696387674	0.0	0.990404066887129	-0.6371245859666483	0.0	0.9617569532994372	-0.7333328253503768	0.0	0.9942076258169487	-0.7632123614314594	0.0	0.9824772561876355	-0.7641887090564641	0.0	0.9506142826739953	-0.7501097865564961	0.0	0.9600325543955368	-0.538282971373973	0.0	0.9876656380690308	-0.6359373557748418	0.0	0.9654011375815125	-0.7266284695417038	0.0	1.000222023074086	-0.7573075786139486	0.0	0.9948749777696518	-0.7527005378314147	0.0	0.9517896929231503	-0.7433467945989164	0.0	0.9674250499042658	-0.40731507933640027	0.0	0.993811006770375	-0.3407631607429648	0.0	0.9980957630556541	-0.3757479385965396	0.0	0.9614447501669177	-0.42556698617619537	0.0	0.9504977360054501	-0.49149576309344656	0.0	0.9743016703592609	-0.5463213726245022	0.0	0.9574471491031309	-0.42267372534888087	0.0	0.9545032465912626	-0.48163676892516377	0.0	0.9765507531342846	-0.5337259408299825	0.0
146	4.897274633123689	0.9655080188027346	-0.5227812847405352	0.0	0.9679045150738077	-0.5247117960831166	0.0	0.9899798553735403	-0.6229634794101426	0.0	0.9648901031395384	-0.7203422403269708	0.0	0.9965650011855296	-0.7532176846704584	0.0	0.9849574281640455	-0.7541588881885303	0.0	0.9544354873714214	-0.7372729392684997	0.0	0.9611829080021607	-0.5222819367602968	0.0	0.9866753638918595	-0.6215035429381461	0.0	0.9675547435665373	-0.7141540962683375	0.0	1.0016507827344086	-0.7472020919478981	0.0	0.9965459318853234	-0.742214290516755	0.0	0.9541319694768561	-0.7316489775398202	0.0	0.9698062280718436	-0.39177177876560487	0.0	0.997091363826867	-0.32552804618012	0.0	1.0002133304417122	-0.3604878255565928	0.0	0.9635447411165176	-0.4092376055474047	0.0	0.9533609828322065	-0.4752075090594338	0.0	0.9817330353891423	-0.5285790683459697	0.0	0.959253499629912	-0.406548587431781	0.0	0.956504724958671	-0.46529742654441775	0.0	0.9805842868330563	-0.5177733299974473	0.0
147	4.930817610062892	0.9671822531218791	-0.5101268544632164	0.0	0.9706236842431768	-0.5125505344606025	0.0	0.9893996635928988	-0.6120873514743019	0.0	0.9683572835981596	-0.7103217243244553	0.0	0.9988670602247299	-0.7457099401659465	0.0	0.9877259017797528	-0.7467395569869215	0.0	0.9587714197011791	-0.7271089194146195	0.0	0.9624237740787634	-0.509787434514461	0.0	0.9857683450977597	-0.6100956236090938	0.0	0.9697672647271057	-0.7046345585961006	0.0	1.0033971261476415	-0.7393784650503183	0.0	0.99816995309104	-0.734186804786038	0.0	0.9567530951736897	-0.7227568695356098	0.0	0.9723305408609776	-0.3797637209580918	0.0	0.9996911622330809	-0.31372021436423697	0.0	1.0024557789627575	-0.3487192283241357	0.0	0.9658579123541473	-0.39650347379767165	0.0	0.9570573434127967	-0.4626301564884804	0.0	0.9901938050255823	-0.5145535549673749	0.0	0.9613537933263621	-0.39398261003258883	0.0	0.9585754190190467	-0.4526512871515721	0.0	0.985055062682135	-0.50565594921444	0.0
148	4.964360587002096	0.9687398870376221	-0.5016087811003345	0.0	0.9729437494817857	-0.5041928088588338	0.0	0.9889584431735218	-0.6046374657457378	0.0	0.9719082357942143	-0.703475061845805	0.0	1.0011112744264272	-0.7407383980168476	0.0	0.9906095622978611	-0.7420067716218331	0.0	0.9632648347523171	-0.7200507873107662	0.0	0.9638935926489826	-0.5011113141208473	0.0	0.9852344814412249	-0.6020222726867376	0.0	0.9719765338270128	-0.6981348119802266	0.0	1.0053381186049752	-0.7338407530914733	0.0	0.9996895180392396	-0.7286812009743029	0.0	0.9595506558805685	-0.7167700211216373	0.0	0.974960307483591	-0.37159421043323776	0.0	1.0015023277273727	-0.3054901890469725	0.0	1.004740044200865	-0.3406918600569215	0.0	0.9685373330430207	-0.3877394090289986	0.0	0.9617184909218552	-0.45413699256598034	0.0	0.9994184115964758	-0.5045456762650907	0.0	0.9637583633773619	-0.3853889250076396	0.0	0.9607485882633292	-0.4440409338383239	0.0	0.9899664378022416	-0.4973324499017175	0.0
149	4.997903563941299	0.9702469777135627	-0.4973680972758803	0.0	0.9749630156238358	-0.4997583562591526	0.0	0.9888692085747772	-0.6006957839116079	0.0	0.975306973197593	-0.7000520650766334	0.0	1.0033485176893417	-0.7384698248413526	0.0	0.9934671101739492	-0.7400547166424137	0.0	0.9675552915096696	-0.7165175997827379	0.0	0.965690843468487	-0.49640332023106576	0.0	0.9852321205761435	-0.5975568108877507	0.0	0.9741459204653641	-0.6947810036938129	0.0	1.0072518040170306	-0.7307516371734278	0.0	1.0010523699454499	-0.7258749828728427	0.0	0.9623731866618408	-0.7137987210165027	0.0	0.9776839654283587	-0.36738982290868544	0.0	1.0026141809985052	-0.3008842869417852	0.0	1.006968120915604	-0.33647355042449445	0.0	0.9716229917310047	-0.3831542923278388	0.0	0.9673199769646436	-0.4499101913333087	0.0	1.0090232041627685	-0.49874069273962707	0.0	0.9664624694826419	-0.38098129199438474	0.0	0.9631520439438485	-0.4396316957015696	0.0	0.9952233599558367	-0.49264811144589543	0.0
150	5.031446540880502	0.9717417602363712	-0.4973856447381564	0.0	0.976785781988448	-0.4992786273134647	0.0	0.9892227324571871	-0.6003271407180271	0.0	0.9783338231101674	-0.7002899253787443	0.0	1.0055759089536462	-0.7391185281961459	0.0	0.9961798642824171	-0.740987254458726	0.0	0.9712902441921308	-0.7168186427626746	0.0	0.9678103993551792	-0.4956876234427414	0.0	0.9857655424020981	-0.5968946878653297	0.0	0.976232147880427	-0.694788469192378	0.0	1.0089201979775795	-0.7304388850159915	0.0	1.0022400265088534	-0.7260856558487895	0.0	0.965022404089247	-0.7140195328602081	0.0	0.9805225203510434	-0.3671674411310415	0.0	1.003342387501572	-0.29993019075307475	0.0	1.0091379152179927	-0.33605613642241156	0.0	0.9750435614215887	-0.38281604560660126	0.0	0.9736331022880753	-0.44998297793912195	0.0	1.0185519043827453	-0.4972595342926211	0.0	0.9693526082165365	-0.3807979941135229	0.0	0.9658606081100045	-0.4394001066690013	0.0	1.0005309534007516	-0.49153776252288933	0.0
151	5.064989517819706	0.9732618100549949	-0.5015140298291944	0.0	0.9784885594533844	-0.5026957838019522	0.0	0.9899846928163641	-0.6035787812501081	0.0	0.9807613408277327	-0.7043151164351822	0.0	1.0076627144844328	-0.7428506710903965	0.0	0.9985832879440201	-0.7448896674343001	0.0	0.9741258639708197	-0.7210645254069491	0.0	0.9701684683589229	-0.4988764515907344	0.0	0.9867523294511465	-0.6000871956326495	0.0	0.9781211442130465	-0.698397279006551	0.0	1.0101986546749704	-0.7333002769610181	0.0	1.0032351227326757	-0.7296551433675325	0.0	0.9672553287805885	-0.7176246472521809	0.0	0.9834768180323805	-0.3708401006993887	0.0	1.004083159783126	-0.3026471606878724	0.0	1.0113696426253538	-0.33940697447933527	0.0	0.978632228016606	-0.3866361006844159	0.0	0.9802408751030631	-0.4542130591635649	0.0	1.027492743175364	-0.5001025043988094	0.0	0.9722419965344409	-0.38470375787226885	0.0	0.9688211404150564	-0.44313714361532375	0.0	1.0054333443591723	-0.4940071420774387	0.0
